Coordinates
version=1
nRows=11
nColumns=36
inDegrees=yes

Units are S.I. units (second, meters, Newtons, ...)
If the header above contains a line with 'inDegrees', this indicates whether rotational values are in degrees (yes) or radians (no).

endheader
time	pelvis_tilt	pelvis_list	pelvis_rotation	pelvis_tx	pelvis_ty	pelvis_tz	hip_flexion_r	hip_adduction_r	hip_rotation_r	knee_angle_r	knee_angle_r_beta	ankle_angle_r	subtalar_angle_r	mtp_angle_r	hip_flexion_l	hip_adduction_l	hip_rotation_l	knee_angle_l	knee_angle_l_beta	ankle_angle_l	subtalar_angle_l	mtp_angle_l	lumbar_extension	lumbar_bending	lumbar_rotation	arm_flex_r	arm_add_r	arm_rot_r	elbow_flex_r	pro_sup_r	arm_flex_l	arm_add_l	arm_rot_l	elbow_flex_l	pro_sup_l
      0.00000000	     -2.87429778	     -1.74962051	     -8.58972702	      1.19612724	      0.95924800	      0.05755746	      3.52106701	     -3.96660029	     -0.94907397	      1.20076098	      0.02095723	      1.89911146	     -9.86786046	     -6.16679401	      1.61902885	     -9.20820950	     -5.78102339	      0.38491819	      0.00671809	      8.90963300	     -1.34939452	     -6.16679401	      2.90634407	      0.84256713	      0.78332047	     29.94601750	     -1.99791838	     52.22873801	    130.05451663	     80.07888940	     38.61446147	      3.05848592	     60.75006400	    116.03769595	     84.71178383
      0.01666670	     -2.09418463	     -1.03924550	    -10.64333611	      1.20245299	      0.96004817	      0.05604129	      3.69190489	     -5.12036666	     -0.61467069	      2.50451801	      0.04371209	      3.95805035	     -6.68632401	     -6.54496213	      0.59907632	     -8.23992770	     -8.58308703	      0.69804762	      0.01218323	      7.40379048	     -3.48633265	     -6.54496213	      2.53097307	      1.00316215	      2.22321404	     34.02477878	     -3.78905452	     62.85618957	    135.23197628	     94.88635623	     38.50679542	      1.47738504	     57.75851386	    120.36299923	    100.05017675
      0.03333330	     -2.42798923	     -0.84426880	    -10.98468989	      1.20286240	      0.96083219	      0.05670794	      4.35422543	     -5.35595725	     -0.94338002	      3.07000401	      0.05358168	      4.09137578	     -6.04427953	     -7.20650522	      1.17137642	     -8.06246793	     -9.93558346	      1.27042732	      0.02217314	      6.56504720	     -3.76120086	     -7.20650522	      3.16102235	      1.13593178	      0.79720228	     34.48099431	     -1.66602289	     64.29678764	    135.11195182	     99.41417029	     37.94386242	     -0.16943863	     56.94975687	    122.16920126	    104.74720510
      0.05000000	     -2.42302438	     -0.70311328	    -10.81034753	      1.20874663	      0.96426300	      0.06118245	      4.37737499	     -5.62427172	     -1.97904027	      3.37081657	      0.05883185	      4.63356567	     -4.47125110	     -7.22137464	      1.50678521	     -7.97774839	    -10.72552682	      2.03343068	      0.03549006	      6.65840972	     -3.56964181	     -7.22137464	      3.50539132	      0.90715536	     -0.00282528	     34.08021124	     -0.49577824	     64.94231288	    134.11780269	    100.09989789	     37.54801271	     -0.99416239	     57.09260057	    123.01198206	    104.71894205
      0.06666670	     -2.50095123	     -0.57604712	    -10.93136880	      1.20811484	      0.96402959	      0.06102481	      4.64705122	     -5.78647141	     -2.13428960	      3.93388434	      0.06865923	      4.97483378	     -3.72967770	     -7.31984592	      1.73153967	     -7.90914648	    -11.21546291	      2.51681720	      0.04392675	      6.95844930	     -3.26092884	     -7.31984592	      3.66903184	      0.88431794	     -0.20135770	     34.10231404	      0.08538376	     64.95811194	    132.70970626	    101.23407166	     37.78005300	     -1.21185555	     57.23126521	    123.81471995	    104.36071030
      0.08333330	     -2.70741365	     -0.43180952	    -11.00273757	      1.20823858	      0.96134153	      0.06158348	      4.99678761	     -5.94127989	     -2.09366026	      4.38701933	      0.07656793	      5.04115744	     -3.49202683	     -7.37315119	      2.05053942	     -7.86612572	    -11.47086841	      2.93284660	      0.05118783	      7.32010083	     -2.78417477	     -7.37315119	      4.06846039	      0.82615836	     -0.49264579	     33.89749437	      0.79113989	     64.38300810	    131.30087830	    100.18433728	     37.98346885	     -1.36971036	     56.95210242	    124.37486021	    102.93303145
      0.10000000	     -2.93355137	     -0.29040929	    -11.02720351	      1.20854233	      0.96074647	      0.06155084	      5.33616837	     -6.04416103	     -1.97328288	      4.67171556	      0.08153682	      4.93967626	     -3.69712406	     -7.40091972	      2.42220704	     -7.82705792	    -11.57576651	      3.31285601	      0.05782025	      7.63994298	     -2.50766125	     -7.40091972	      4.47527427	      0.75597957	     -0.65214478	     33.67451142	      1.17012579	     63.90566660	    130.80149065	     99.44796559	     38.25295358	     -1.38719218	     56.69105184	    124.76604645	    102.16300294
      0.11666670	     -3.00981156	     -0.22483656	    -11.15877865	      1.21411063	      0.95796142	      0.06594316	      5.38102627	     -6.04023721	     -1.74169417	      4.83634717	      0.08441018	      5.00507661	     -4.03812831	     -7.40264150	      2.46227611	     -7.82692652	    -11.73076156	      3.53779367	      0.06174615	      7.83428734	     -2.30341585	     -7.40264150	      4.77394685	      0.71341758	     -0.58218661	     33.40918311	      1.31376536	     62.18396718	    130.05321967	     99.24895794	     38.59484458	     -1.37770082	     56.70546349	    125.85284521	    102.02936512
      0.13333330	     -3.21309828	     -0.15672680	    -11.24175581	      1.21419931	      0.95530009	      0.06621205	      5.62544826	     -5.99601291	     -1.43383771	      5.02626905	      0.08772494	      4.95287160	     -4.58637501	     -7.41189869	      2.64482219	     -7.84801713	    -11.75323366	      3.74423098	      0.06534916	      7.97540835	     -2.16945332	     -7.41189869	      5.29957208	      0.62511635	     -0.53988103	     33.08423969	      1.64253622	     60.53470722	    129.31602537	     97.82765294	     38.89707592	     -1.27533716	     56.66075182	    126.62481727	    100.71799113
      0.15000000	     -3.23295989	     -0.16018275	    -11.36012771	      1.21443426	      0.95823159	      0.06613058	      5.61145739	     -5.90025527	     -1.01858921	      5.09938640	      0.08900108	      4.83231173	     -5.31583667	     -7.42914180	      2.60414144	     -7.92435807	    -11.95377882	      3.96027679	      0.06911987	      8.24231972	     -1.77514576	     -7.42914180	      5.35692843	      0.61069962	     -0.40698394	     32.89840859	      1.30375433	     59.74608380	    128.97419181	     95.98144879	     38.78317357	     -1.50485257	     56.58067886	    126.68674302	     98.84180011
      0.16666670	     -3.37311936	     -0.13832671	    -11.43196953	      1.21454594	      0.95809331	      0.06616890	      5.74869478	     -5.82004046	     -0.74080592	      5.17108895	      0.09025253	      4.78980413	     -5.86293140	     -7.43711903	      2.74410681	     -7.98948763	    -11.90425055	      4.13544535	      0.07217714	      8.38391852	     -1.71766822	     -7.43711903	      5.54305437	      0.50325731	     -0.32847288	     32.79024355	      1.40024941	     59.57076815	    128.82073251	     94.68421673	     38.72845466	     -1.67409927	     56.70248642	    126.49573666	     97.39578247
